<svg xmlns="http://www.w3.org/2000/svg" xmlns:xlink="http://www.w3.org/1999/xlink" width="489.2pt" height="616.6pt" viewBox="0 0 489.2 616.6"><clipPath id="a"><path transform="matrix(1 0 0 -1 0 616.6)" d="M0 616.6h489.2V0H0z"/></clipPath><g clip-path="url(#a)"><path d="M217.97 148.473c14.85 0 26.888-12.038 26.888-26.887S232.82 94.7 217.97 94.7s-26.887 12.038-26.887 26.887c0 14.85 12.037 26.887 26.887 26.887" fill="#3d72fc"/><path d="M318.46 159.703c-13.211-9.908-25.101 7.926-25.101 7.926l-28.404 38.973c-6.605 7.927-22.459 11.89-22.459 11.89-7.926-7.927-9.247-34.349-9.247-34.349h19.816c13.211.661 19.817-6.605 19.817-6.605l28.744-22.119c13.871-11.89 2.962-22.799 2.962-22.799-8.587-12.55-24.441-.66-24.441-.66l-27.742 21.798-62.753-.66-22.458 11.889-15.193-21.798a19.612 19.612 0 0 0-2.443-2.317l30.847-60.435-8.587-7.266-33.688 64.074.57.379c-5.911.595-10.478 4.244-10.478 4.244-9.908 5.285-1.322 23.119-1.322 23.119l23.12 29.725c7.926 11.229 23.78 2.642 23.78 2.642l7.927-4.624c-1.322 26.422 13.211 50.202 13.211 50.202l-18.497 23.119c-12.549 9.248-16.513 29.065-16.513 29.065l-10.569 36.33c-7.926 20.476 9.909 24.44 9.909 24.44 19.816 3.963 21.137-13.872 21.137-13.872l13.871-47.559 15.193-18.496c15.193-22.458 34.348-24.44 34.348-24.44l17.175-4.624c17.174-3.302 28.404-18.495 28.404-18.495l31.045-41.614c13.211-19.157-1.981-27.083-1.981-27.083" fill="#3d72fc"/><path stroke-width="17" stroke-linecap="round" stroke-linejoin="round" fill="none" stroke="#ef6900" d="M180.073 80.412c34.74-12.935 58.406-21.726 95.451-23.095 5.78-.213 27.541-1.299 31.046 3.303 3.371 4.427.124 13.965-3.366 18.298-3.49 4.334-8.634 6.931-13.537 9.562-4.904 2.631-9.925 5.611-12.833 10.355-1.617 2.64-2.423 6.19-.688 8.754 1.237 1.826 3.447 2.703 5.564 3.316 15.417 4.463 31.992.182 46.895-5.773 14.904-5.956 29.342-13.656 45.162-16.359.988-.169 2.065-.303 2.94.187 1.726.971 1.473 3.521.82 5.392-3.512 10.05-11.596 18.084-14.632 28.287-.909 3.053-1.265 6.6.554 9.213 2.871 4.126 9.062 3.54 13.938 2.32a205.175 205.175 0 0 0 24.955-7.97M81.835 379.02a232.953 232.953 0 0 0-18.224-16.435M117.633 361.49a186.255 186.255 0 0 0-2.992-19.81M64.186 412.048c-7.486.734-15.025.947-22.54.64M367.19 559.995c-3.834 6.572 2.182 14.543.697 21.82M408.702 542.632c-.826 2.69 1.437 5.257 3.504 7.166 4.09 3.776 8.178 7.554 12.267 11.33M422.807 502.685a406.21 406.21 0 0 0 23.119-.665"/></g><symbol id="b"><path d="M.653 0v.326H.371V.227H.46C.444.145.345.157.332.157.231.157.208.26.208.361c0 .139.039.205.124.205C.403.566.439.51.439.445h.214V.57c0 .087-.069.15-.158.15H.286C.056.72 0 .592 0 .42V.304C0 .16.036 0 .29 0h.081C.41 0 .513.023.552.069V0h.101z"/></symbol><use xlink:href="#b" transform="matrix(59.6167 0 0 -59.6167 95.347 437.242)"/><symbol id="c"><path d="M.503.86.447.948.163.824l.024-.04.316.076M.76.45S.659.751.375.751a.375.375 0 0 1 0-.751c.206 0 .303.138.303.138L.602.222a.301.301 0 0 0-.18-.068C.36.159.292.18.257.233L.76.45M.434.515.185.408C.161.463.196.542.254.569c.059.026.151.012.18-.054z"/></symbol><symbol id="d"><path d="M.563 0v.72H.334V.531L.176.72H0V0h.16v.431L.517 0h.046z"/></symbol><symbol id="e"><path d="M.76.45S.659.751.375.751a.375.375 0 0 1 0-.751c.206 0 .303.138.303.138L.602.222a.301.301 0 0 0-.18-.068C.36.159.292.18.257.233L.76.45M.434.515.185.408C.161.463.196.542.254.569c.059.026.151.012.18-.054z"/></symbol><symbol id="f"><path d="M.623.06.495.255c.053.024.118.108.118.234C.613.631.521.733.42.733H0V.552h.055V.013H.29v.242l.032.001L.428 0l.195.06M.398.48C.398.4.349.365.272.36v.223S.398.595.398.48z"/></symbol><symbol id="g"><path d="M.82 0 .508.72H.312L0 0h.312l.057.264H.45L.508 0H.82M.453.389h-.09L.41.553.453.389z"/></symbol><symbol id="h"><path d="M.617.566v.155H0V.566h.225V0h.246v.566h.146z"/></symbol><symbol id="i"><path d="M.212.672a.095.095 0 0 1-.094.094.095.095 0 0 1-.094-.094c0-.051.043-.094.094-.094.051 0 .094.043.094.094M.236 0v.546H0V0h.236z"/></symbol><symbol id="j"><path d="M.768.4a.385.385 0 0 1-.246.344H.258A.376.376 0 0 1 .006.376.381.381 0 1 1 .768.4M.544.441C.57.327.527.214.452.191.375.168.292.243.267.356.241.47.285.58.361.603.437.626.519.554.544.441z"/></symbol><use xlink:href="#c" transform="matrix(47.7568 0 0 -47.7568 140.24 437.946)"/><use xlink:href="#d" transform="matrix(47.7568 0 0 -47.7568 180.213 437.182)"/><use xlink:href="#e" transform="matrix(47.7568 0 0 -47.7568 212.163 437.946)"/><use xlink:href="#f" transform="matrix(47.7568 0 0 -47.7568 250.511 437.803)"/><use xlink:href="#g" transform="matrix(47.7568 0 0 -47.7568 281.983 437.182)"/><use xlink:href="#h" transform="matrix(47.7568 0 0 -47.7568 315.843 437.23)"/><use xlink:href="#i" transform="matrix(47.7568 0 0 -47.7568 350.37 437.182)"/><use xlink:href="#j" transform="matrix(47.7568 0 0 -47.7568 366.608 438.328)"/><use xlink:href="#d" transform="matrix(47.7568 0 0 -47.7568 408.539 437.182)"/><symbol id="k"><path d="M.75 0 .5.72H.261L0 0h.252l.064.191h.197L.581 0H.75M.46.343H.371l.043.126L.46.343z"/></symbol><symbol id="l"><path d="M.66.103.641.141S.57.092.57.211v.55h-.2V.295C.37.253.343.215.302.215c-.045 0-.064.044-.064.08v.466H0V.279C0 0 .216.025.216.025c.094 0 .156.078.156.078S.41.027.512.025C.568.024.639.059.66.103z"/></symbol><symbol id="m"><path d="M.609.253C.585.458.256.389.256.529c0 .034.019.081.077.081C.383.61.432.6.465.529h.144v.203H.524V.675C.479.732.41.75.333.75.135.75 0 .661.009.504.023.222.425.321.43.213.432.187.419.147.357.147.324.147.278.16.275.225H.084C.084.1.158 0 .333 0c.14 0 .299.056.276.253z"/></symbol><symbol id="n"><path d="M.753 0v.72H.529L.399.437.275.72H0V0h.239v.425L.401 0h.034l.183.437V0h.135z"/></symbol><use xlink:href="#k" transform="matrix(51.2682 0 0 -51.2682 157.35 521.39)"/><use xlink:href="#l" transform="matrix(51.2682 0 0 -51.2682 199.492 523.491)"/><use xlink:href="#h" transform="matrix(51.2682 0 0 -51.2682 232.611 521.44)"/><use xlink:href="#i" transform="matrix(51.2682 0 0 -51.2682 269.678 521.39)"/><use xlink:href="#m" transform="matrix(51.2682 0 0 -51.2682 287.212 522.056)"/><use xlink:href="#n" transform="matrix(51.2682 0 0 -51.2682 324.279 521.39)"/><use xlink:href="#e" transform="matrix(51.2682 0 0 -51.2682 368.318 522.21)"/></svg>